<svg width="552" height="393" viewBox="0 0 552 393" fill="none" xmlns="http://www.w3.org/2000/svg">
    <path d="M1.08843 4.05366C1.71278 3.00929 3.11473 1.68113 4.21019 1.09651C5.30564 0.517564 6.45217 0.0237594 6.76435 0.00105577C7.07652 -0.0216479 8.22306 0.324583 9.31851 0.772981C10.414 1.22138 11.8159 2.14655 12.4403 2.83334C13.4733 3.96852 13.6095 5.17182 13.9501 16.0809C14.1544 22.682 14.7333 31.5365 15.2328 35.748C15.738 39.9595 16.6688 47.3666 17.3045 52.2081C17.9402 57.044 18.6384 61.7721 18.8654 62.7086C19.2684 64.3943 19.3138 64.3603 23.8432 58.4517C26.3633 55.171 31.3524 48.4053 34.9453 43.4105C38.5325 38.4157 42.4545 32.9214 43.6635 31.2073C44.8668 29.4874 48.5788 23.9988 51.9049 19.004C55.231 14.0092 58.6139 8.77035 59.4312 7.3684C60.2429 5.96077 61.6448 4.04799 62.5473 3.11146C63.4497 2.17493 64.9312 1.06813 65.8393 0.64811C66.7985 0.205389 68.331 0.0180835 69.4832 0.205389C70.6525 0.39837 72.168 1.24976 73.1726 2.28277C74.5235 3.67337 74.8754 4.53044 74.864 6.41484C74.8527 8.41844 74.1318 9.88283 70.1984 15.8823C67.6442 19.7816 63.1773 26.5019 60.2826 30.8043C57.3822 35.1123 51.6892 43.2913 47.631 48.9786C43.5727 54.6658 37.4427 62.9697 34.0088 67.431C30.5748 71.8866 27.7652 75.7916 27.7652 76.1094C27.7652 76.4216 30.9608 78.3571 34.8601 80.4061C38.7595 82.4551 44.8952 85.7982 48.4823 87.8359C52.0695 89.8679 57.5638 93.1939 60.6856 95.2203C63.8073 97.2466 68.7851 100.72 71.7536 102.94C74.7221 105.159 79.8304 109.274 83.1054 112.078C86.3804 114.887 90.9836 119.105 93.3278 121.449C95.6776 123.793 99.1399 127.369 101.024 129.401C102.914 131.427 105.883 134.878 107.62 137.063C109.362 139.248 112.722 143.971 115.089 147.564C117.456 151.151 119.658 154.982 119.988 156.077C120.311 157.167 120.425 158.83 120.232 159.767C120.039 160.703 119.204 162.179 118.376 163.042C117.553 163.91 116.111 164.762 115.174 164.938C114.187 165.125 112.58 164.881 111.343 164.359C109.561 163.604 108.255 162.009 103.283 154.517C100.025 149.601 96.0182 144.044 94.3835 142.171C92.7488 140.298 88.7132 136.07 85.4155 132.778C82.1178 129.486 76.8619 124.622 73.7402 121.965C70.6184 119.315 66.0209 115.602 63.5235 113.724C61.0261 111.839 57.4503 109.274 55.5772 108.019C53.7042 106.765 49.3621 104.046 45.9282 101.98C42.4943 99.9142 39.5598 98.2171 39.4009 98.2115C39.242 98.2001 35.7967 96.3952 31.7384 94.1986C27.6801 91.9963 23.9113 90.0779 23.3664 89.9303C22.6399 89.7373 22.4412 89.936 22.6342 90.6625C22.7818 91.2074 23.6956 96.889 24.6719 103.291C25.6425 109.694 27.8447 123.481 29.5588 133.941C31.2786 144.396 33.1857 155.635 33.8044 158.915C34.4174 162.196 35.5696 167.94 36.3586 171.686C37.2043 175.716 38.3111 179.309 39.0717 180.484C39.7755 181.574 40.519 183.174 40.729 184.031C40.9561 184.968 40.7631 186.387 40.2523 187.579C39.7868 188.669 38.5722 190.076 37.5562 190.701C36.5402 191.319 34.8828 191.83 33.8669 191.836C32.8509 191.836 31.2559 191.455 30.3194 190.984C29.3829 190.513 27.9412 189.049 27.1125 187.721C26.2838 186.387 24.8762 182.385 23.9681 178.781C23.0656 175.188 21.5785 168.167 20.659 163.172C19.7452 158.178 18.2013 149.493 17.2364 143.874C16.2715 138.255 15.1363 131.359 14.7106 128.549C14.2849 125.74 13.1554 118.333 12.1962 112.089C11.2313 105.846 10.0734 98.4385 9.61934 95.6289C9.16526 92.8193 8.37063 87.5861 7.8598 83.9933L7.73777 83.1254C7.23939 79.5811 6.56798 74.8064 6.19108 72.0739C5.78809 69.1054 4.67561 60.8072 3.72206 53.6271C2.77418 46.4471 1.55953 36.8661 1.03167 32.3424C0.503812 27.8131 0.0440623 20.0257 0.0100068 15.0309C-0.0410764 6.89729 0.0724419 5.75076 1.08843 4.05366Z" fill="white"/>
    <path d="M244.267 7.65219C245.022 6.05726 245.993 5.09235 247.52 4.41692C248.717 3.88906 250.011 3.44066 250.403 3.42363C250.795 3.40661 251.941 3.77554 252.957 4.23529C253.973 4.70072 255.216 5.78482 255.721 6.64756C256.334 7.70895 256.743 10.2518 256.964 14.4633C257.152 17.8972 257.691 23.1304 258.168 26.0989C258.645 29.0618 259.689 35.4472 260.478 40.2887C261.272 45.1246 262.703 53.4285 263.662 58.7355C264.616 64.0424 266.029 71.8355 266.795 76.047C267.561 80.2585 268.674 86.5191 269.27 89.953C269.86 93.3869 271.273 101.18 272.403 107.265C273.538 113.349 274.832 120.376 275.286 122.873C275.74 125.371 276.768 130.604 277.568 134.509C278.368 138.408 279.356 143.006 279.765 144.726C280.179 146.445 280.923 149.317 281.422 151.111C281.922 152.905 282.194 155.078 282.029 155.936C281.865 156.793 281.036 158.2 280.185 159.057C279.333 159.914 277.744 160.777 276.654 160.97C275.354 161.203 273.981 161.01 272.681 160.414C271.381 159.812 270.263 158.66 269.44 157.076C268.753 155.748 267.925 153.762 267.601 152.672C267.283 151.582 266.5 148.256 265.864 145.293C265.229 142.33 264.099 136.836 263.344 133.09C262.595 129.344 261.693 124.746 261.346 122.873C261 121 259.309 111.805 257.595 102.44C255.875 93.0748 254.416 85.3612 254.354 85.2988C254.285 85.2363 251.811 85.5485 248.842 85.9855C245.874 86.4283 241.532 87.1832 239.193 87.6713C236.849 88.1537 233.148 88.9654 230.963 89.4762C228.778 89.9814 223.67 91.2698 219.611 92.3369C215.553 93.404 212.102 94.3972 211.949 94.5448C211.796 94.6981 212.13 97.2976 212.704 100.334C213.277 103.365 214.111 107.889 214.56 110.386C214.975 112.697 215.642 116.369 216.099 118.883L216.206 119.468C216.665 121.965 217.693 127.715 218.493 132.239C219.293 136.762 220.332 142.381 220.798 144.726C221.263 147.064 222.058 150.26 222.557 151.821C223.079 153.449 223.312 155.323 223.102 156.219C222.898 157.076 222.092 158.546 221.314 159.483C220.531 160.42 219.191 161.339 218.334 161.521C217.477 161.708 215.814 161.577 214.645 161.237C213.356 160.862 211.989 159.892 211.171 158.774C210.428 157.758 209.423 155.652 208.935 154.091C208.447 152.53 207.505 148.313 206.846 144.726C206.188 141.133 205.291 136.28 204.854 133.941C204.417 131.597 203.407 125.978 202.612 121.454C201.834 116.995 200.632 110.13 198.694 99.0706L198.61 98.5918L196.056 97.8141C194.649 97.3885 193.042 96.5938 192.48 96.0489C191.913 95.5041 191.215 94.1021 190.92 92.9329C190.528 91.3947 190.59 90.2879 191.13 88.9597C191.544 87.9437 192.628 86.5304 193.542 85.8153C194.456 85.1058 195.403 84.4644 195.648 84.3963C195.892 84.3338 195.438 80.7012 194.637 76.3308C193.843 71.9603 192.531 65.189 191.731 61.2896C190.931 57.3846 189.137 48.7061 187.752 41.9915C186.362 35.2769 184.597 26.6608 183.83 22.8353C183.064 19.0097 182.434 15.116 182.434 14.1795C182.434 13.243 182.814 11.5799 183.285 10.4902C183.853 9.16577 184.799 8.21978 186.123 7.65219C187.213 7.18109 188.683 6.80081 189.387 6.80081C190.091 6.80648 191.493 7.31731 192.509 7.93599C193.525 8.56034 194.643 9.77499 195 10.632C195.358 11.4891 196.119 14.4917 196.698 17.3013C197.277 20.1108 198.122 24.3224 198.576 26.6665C199.036 29.005 200.449 35.9012 201.726 41.9915C202.998 48.0761 204.774 56.7602 205.671 61.2896C206.568 65.8133 207.771 72.0114 208.35 75.0594C208.924 78.1074 209.588 80.5934 209.82 80.5934C210.053 80.5877 214.27 79.5831 219.186 78.3571C224.101 77.1311 229.913 75.7121 232.098 75.2013C234.284 74.6961 239.522 73.6915 243.734 72.982C249.064 72.0739 251.447 71.4382 251.561 70.8819C251.658 70.4449 250.942 65.6147 249.972 60.1544C249.007 54.6885 247.707 47.2815 247.083 43.6943C246.458 40.1014 245.323 32.9498 244.557 27.8017C243.796 22.648 243.172 16.518 243.178 14.1795C243.178 11.1769 243.501 9.2528 244.267 7.65219Z" fill="white"/>
    <path d="M121.991 10.0304C123.546 9.0655 125.845 7.95302 127.094 7.5557C128.343 7.15271 130.386 6.95406 131.635 7.11298C132.883 7.27191 135.182 8.00978 136.743 8.75332C138.508 9.58768 140.937 11.5686 143.168 13.9865C145.739 16.7677 147.521 19.4751 149.48 23.5448C150.978 26.6665 152.879 31.264 153.691 33.7614C154.508 36.2588 155.661 39.8346 156.257 41.7077C156.853 43.5808 158.289 48.9445 159.458 53.6271C160.735 58.7525 161.944 62.4248 162.5 62.8505C163.005 63.2365 164.01 64.1333 164.725 64.8371C165.446 65.5409 166.167 66.8804 166.331 67.8169C166.502 68.7818 166.224 70.5016 165.69 71.7901C164.782 73.981 164.805 74.2818 166.286 80.3039C167.126 83.7379 170.492 96.5087 173.756 108.684C177.019 120.858 180.056 132.097 180.499 133.658C180.941 135.218 181.719 138.408 182.23 140.752C183.053 144.527 183.064 145.236 182.332 146.996C181.764 148.353 180.794 149.317 179.273 150.038C177.831 150.719 176.44 150.975 175.339 150.753C174.403 150.566 173.126 150.067 172.501 149.641C171.877 149.221 170.878 147.876 170.282 146.655C169.686 145.441 168.193 140.735 166.961 136.212C165.73 131.688 164.39 126.705 163.982 125.144C163.567 123.583 162.733 120.387 162.114 118.049C161.501 115.705 160.065 110.341 158.924 106.129C157.789 101.918 155.462 93.1031 153.754 86.5474C152.045 79.9918 150.586 74.5656 150.507 74.4861C150.428 74.4123 147.936 73.9696 144.973 73.5042C142.004 73.0444 137.027 72.1533 133.905 71.529C130.783 70.9103 125.93 69.8603 123.121 69.1962C120.311 68.5378 116.605 67.6693 114.891 67.272C113.171 66.869 111.065 66.3866 110.208 66.1879C109.351 65.9893 108.517 66.0858 108.363 66.3979C108.204 66.7101 107.694 69.8376 107.228 73.3509C106.757 76.8643 106.371 81.6491 106.365 83.9933C106.36 86.3318 106.042 89.1754 105.656 90.3106C105.276 91.4401 104.447 92.9158 103.823 93.5913C103.198 94.2667 101.791 95.0897 100.701 95.4189C99.2988 95.8389 98.2942 95.8389 97.2952 95.4076C96.512 95.0727 95.2349 94.1361 94.4573 93.3245C93.1461 91.9623 93.0213 91.372 92.8453 85.5088C92.7432 82.0237 92.9532 76.6146 93.3221 73.4928C93.6854 70.3711 94.4913 65.643 95.1157 62.9924C95.74 60.3417 97.2215 55.3583 98.4077 51.9244C99.594 48.4904 101.586 43.3821 102.829 40.5725C104.072 37.7629 106.053 33.5457 107.234 31.2073C108.409 28.8631 110.531 25.0319 111.939 22.6934C113.352 20.3492 115.555 16.938 116.837 15.1047C118.256 13.0727 120.26 11.0975 121.991 10.0304Z" fill="white"/>
    <path d="M539.794 203.135C540.509 202.471 541.48 201.79 541.951 201.62C542.422 201.444 543.762 201.285 544.931 201.262C546.515 201.228 547.565 201.648 549.046 202.92C550.408 204.089 551.146 205.292 551.39 206.751C551.589 207.92 551.458 210.026 551.101 211.434C550.703 212.994 550.232 224.244 549.892 240.381C549.585 254.9 549.063 270.73 548.74 275.571C548.41 280.407 547.979 300.971 547.417 358.156L545.862 359.859C544.539 361.318 543.909 361.562 541.474 361.562C539.232 361.562 538.319 361.266 537.121 360.143C536.292 359.359 535.208 357.827 534.72 356.737C534.022 355.171 533.778 351.856 533.579 341.128C533.443 333.636 533.591 318.567 533.914 307.64C534.232 296.714 534.402 287.644 534.289 287.491C534.181 287.332 532.728 287.389 531.065 287.616C529.407 287.843 524.214 288.575 519.531 289.256C514.849 289.932 507.311 291.226 502.787 292.128C498.264 293.036 493.087 294.018 488.03 294.87L488.024 299.836C488.024 302.566 488.28 309.145 488.598 314.451C488.915 319.758 489.426 330.548 489.738 338.432C490.227 350.817 490.187 352.997 489.449 354.467C488.978 355.403 487.831 356.55 486.895 357.021C485.958 357.492 484.551 357.872 483.773 357.872C482.99 357.872 481.588 357.492 480.651 357.021C479.613 356.499 478.523 355.227 477.853 353.757C477.121 352.157 476.553 348.967 476.156 344.25C475.832 340.345 475.276 328.34 474.936 317.573C474.323 298.559 474.266 297.918 472.938 295.437C472.183 294.035 471.57 292.31 471.57 291.606C471.57 290.902 472.018 289.404 472.563 288.274C473.5 286.339 473.511 285.215 472.75 269.402C472.308 260.15 471.848 248.622 471.729 243.786C471.57 237.27 471.717 234.398 472.302 232.718C472.796 231.294 473.812 229.965 475.026 229.154C476.094 228.444 477.728 227.871 478.665 227.888C479.601 227.899 480.98 228.229 481.735 228.609C482.49 228.995 483.546 230.209 484.091 231.299C484.903 232.928 485.203 236.158 485.754 249.178C486.128 257.919 486.6 268.562 486.804 272.83C487.008 277.093 487.303 280.708 487.462 280.856C487.621 281.003 493.365 280.044 500.233 278.722C507.101 277.405 515.655 275.861 519.247 275.299C522.84 274.737 527.818 274.192 534.856 273.908L535.248 262.965C535.464 256.943 535.906 242.566 536.224 231.015C536.65 215.537 537.024 209.271 537.649 207.177C538.109 205.616 539.073 203.794 539.794 203.135Z" fill="white"/>
    <path d="M456.337 18.3399C456.984 17.4545 458.391 16.2853 459.459 15.7404C460.531 15.1955 461.598 14.7471 461.831 14.7471C462.064 14.7471 462.961 15.0366 463.818 15.3885C464.834 15.8085 470.646 16.0582 480.42 16.098C495.393 16.1661 495.478 16.1717 499.434 17.7213C501.619 18.5727 504.043 19.9179 504.826 20.7125C505.95 21.8533 506.245 22.7274 506.245 24.9297C506.245 27.1206 505.944 28.0231 504.826 29.1923C504.043 30.0096 502.51 30.9518 501.421 31.2924C499.82 31.7919 498.719 31.7067 495.745 30.8497C492.736 29.9869 490.222 29.7939 482.122 29.828C476.657 29.8507 471.486 30.0437 469.068 30.6397V89.6692L474.886 89.2889C479.177 89.0108 481.436 89.1243 483.485 89.7146C485.017 90.1573 486.879 91.1563 487.622 91.9396C488.372 92.7172 489.127 94.1248 489.302 95.0613C489.495 96.0716 489.257 97.5701 488.724 98.7507C488.224 99.8404 487.049 101.186 486.107 101.731C484.904 102.429 483.161 102.724 480.278 102.729C478.013 102.729 474.568 102.985 469.068 103.859L469.13 126.137C469.164 138.391 469.357 150.844 469.919 159.199L473.041 159.063C474.755 158.984 481.907 158.541 488.934 158.07C495.955 157.604 508.345 156.94 516.462 156.605C524.578 156.265 533.263 155.85 535.76 155.686C539.971 155.402 540.426 155.481 542.003 156.776C542.94 157.542 544.052 158.91 544.472 159.818C544.892 160.726 545.102 162.105 544.932 162.889C544.768 163.666 544.035 165.057 543.315 165.971C542.594 166.884 541.237 167.951 540.301 168.337C539.364 168.729 533.365 169.439 526.962 169.91C520.56 170.381 510.474 170.926 504.542 171.119C498.611 171.312 490.307 171.709 486.096 172.004C481.878 172.299 475.879 172.804 472.757 173.122C469.635 173.446 466.06 173.849 464.811 174.025C463.386 174.229 461.644 174.008 460.128 173.44C458.25 172.736 457.449 172.004 456.518 170.125C455.497 168.082 455.412 167.412 455.939 165.727C456.394 164.273 456.376 161.214 455.888 154.375C455.434 148.04 455.207 124.775 455.19 82.4778C455.162 20.0995 455.168 19.9349 456.337 18.3399Z" fill="white"/>
    <path d="M404.93 17.3296C408.517 16.8415 412.604 16.3818 414.011 16.308C415.413 16.2285 418.354 16.2512 420.539 16.3534C422.724 16.4555 425.789 16.9437 427.35 17.4318C428.911 17.9256 431.051 18.9927 432.106 19.7987C433.156 20.6103 434.626 22.2961 435.359 23.5448C436.096 24.7935 437.215 27.4725 437.839 29.5045C438.514 31.6954 439.201 36.2985 439.536 40.8563C439.843 45.0678 440.365 69.8432 440.705 95.9127C441.046 121.977 441.562 147.842 441.857 153.381C442.17 159.33 442.181 163.978 441.886 164.733C441.602 165.437 440.773 166.584 440.041 167.282C439.303 167.986 437.805 168.701 436.715 168.871C435.391 169.083 434.072 168.848 432.759 168.167C431.681 167.605 430.347 166.379 429.808 165.443C429.229 164.444 428.582 161.504 428.252 158.348C427.946 155.385 427.412 131.245 427.077 104.71C426.737 78.1755 426.209 51.4816 425.897 45.397C425.465 36.9399 425.102 33.8579 423.377 30.3559L415.714 30.4183C411.452 30.4467 405.787 30.878 402.943 31.3889C400.134 31.8884 396.427 32.8306 394.713 33.4719C392.993 34.119 390.876 35.2145 388.407 37.167L387.885 48.8026C387.601 55.1994 387.346 73.9753 387.323 90.5206C387.289 117.322 387.181 120.915 386.319 123.441C385.564 125.649 384.911 126.506 383.361 127.301C381.954 128.021 380.717 128.22 379.105 127.976C377.856 127.789 376.323 127.164 375.699 126.585C375.075 126.006 374.274 124.553 373.922 123.35C373.457 121.761 373.4 110.097 373.718 80.3039C374.093 45.0849 374.286 38.9265 375.097 35.748C375.614 33.716 376.63 31.037 377.351 29.7883C378.077 28.5396 379.53 26.7857 380.586 25.8832C381.647 24.9864 384.167 23.4199 386.199 22.4039C388.226 21.3879 391.802 20.0314 394.146 19.3843C396.484 18.7429 401.337 17.8178 404.93 17.3296Z" fill="white"/>
    <path d="M222.965 211.621C225.927 211.15 229.634 210.548 231.195 210.287C232.756 210.02 235.435 209.884 237.154 209.98C238.874 210.071 241.298 210.662 242.546 211.28C243.795 211.905 245.47 213.153 246.27 214.05C247.065 214.953 248.2 217.223 248.79 219.096C249.613 221.707 249.874 224.289 249.897 230.164C249.914 234.376 249.602 242.679 249.204 248.611C248.813 254.542 248.211 263.993 247.876 269.612C247.541 275.231 247.133 295.409 246.962 314.451C246.747 339.335 246.86 351.708 247.371 358.44C247.984 366.562 247.967 368.032 247.235 369.508C246.769 370.444 245.464 371.659 244.329 372.204C243.194 372.749 241.814 373.203 241.269 373.214C240.725 373.22 239.396 372.647 238.324 371.937C237.245 371.228 235.86 369.746 235.242 368.656C234.385 367.152 233.987 364.939 233.613 359.575C233.34 355.67 233.068 341.242 233.005 327.506C232.949 313.77 233.232 293.082 233.647 281.531C234.055 269.981 234.64 257.59 234.946 254.003C235.247 250.41 235.679 242.174 236.303 223.915L234.316 223.926C233.221 223.932 227.857 224.681 222.397 225.601C216.931 226.514 208.633 227.916 203.95 228.717C199.268 229.517 193.773 230.59 191.747 231.101C189.715 231.611 187.484 232.378 186.781 232.798C186.077 233.223 185.379 234.273 185.225 235.13C185.078 235.988 184.442 241.925 183.818 248.327C183.188 254.724 182.421 263.919 182.104 268.76C181.786 273.596 181.252 280.368 180.912 283.802C180.571 287.247 180.452 293.099 180.651 296.856C180.849 300.602 181.059 305.029 181.127 306.693C181.235 309.462 181.088 309.865 179.402 311.375C177.943 312.686 177.024 313.033 175.003 313.033C172.914 313.033 172.08 312.698 170.423 311.188C169.31 310.172 168.158 308.446 167.863 307.357C167.562 306.261 167.034 303.452 166.688 301.113C166.177 297.719 166.245 294.387 167.011 284.653C167.539 277.938 168.589 265.043 169.35 255.99C170.11 246.936 171.132 237.231 171.62 234.421C172.12 231.549 173.079 228.319 173.817 227.042C174.543 225.794 175.996 224.04 177.052 223.143C178.113 222.246 179.935 221.031 181.105 220.447C182.274 219.857 185.594 218.75 188.483 217.984C191.372 217.212 199.097 215.662 205.653 214.533C212.209 213.403 220.002 212.092 222.965 211.621Z" fill="white"/>
    <path d="M329.44 28.7609C330.53 28.0968 332.318 27.2398 333.413 26.8538C334.503 26.4622 336.547 26.1387 337.954 26.1273C339.475 26.116 341.655 26.6438 343.346 27.4328C344.907 28.165 347.092 29.7542 348.199 30.9745C349.306 32.1949 351.031 34.8512 352.042 36.8832C353.046 38.9095 354.272 41.9745 354.766 43.6943C355.254 45.4084 356.276 50.0059 357.025 53.9109C357.78 57.8103 358.796 64.3262 359.284 68.3845C359.778 72.4428 360.539 80.741 360.976 86.8312C361.418 92.9158 362.162 106.073 362.627 116.062C363.093 126.052 363.87 139.714 364.353 146.428C364.83 153.137 365.255 159.523 365.289 160.618C365.329 161.708 365.323 163.178 365.278 163.882C365.233 164.586 364.472 165.988 363.581 167.004C362.69 168.02 361.225 169.007 360.317 169.206C359.415 169.404 357.905 169.348 356.968 169.087C356.032 168.826 354.715 168.025 354.045 167.31C353.37 166.595 352.541 164.989 352.206 163.74C351.866 162.491 351.332 157.513 351.014 152.672C350.697 147.83 350.191 140.423 349.891 136.212C349.584 131.995 349.136 125.013 348.455 112.833L346.468 113.162C345.373 113.349 341.797 113.866 338.522 114.314C335.241 114.762 328.986 115.551 324.616 116.068C320.245 116.584 315.773 117.186 312.696 117.805L312.004 122.607C311.624 125.252 311.141 133.924 310.942 141.888C310.687 151.945 310.346 156.883 309.824 158.064C309.399 159.023 308.19 160.198 307.054 160.76C305.942 161.305 304.461 161.759 303.757 161.77C303.053 161.776 301.583 161.191 300.493 160.471C299.25 159.648 298.2 158.314 297.695 156.906C297.093 155.249 296.889 151.911 296.912 144.158C296.929 137.04 297.343 130.275 298.194 123.157C298.887 117.379 300.056 108.825 300.8 104.143C301.543 99.4602 302.542 93.455 303.025 90.8044C303.501 88.1481 304.421 83.5506 305.057 80.5877C305.692 77.6192 307.003 72.1306 307.968 68.3845C308.933 64.6384 310.806 58.7638 312.123 55.3299C313.446 51.896 315.364 47.4233 316.386 45.397C317.407 43.3651 319.286 40.1752 320.557 38.3021C321.823 36.4291 323.901 33.7841 325.161 32.4276C326.421 31.071 328.345 29.4193 329.44 28.7609Z" fill="white"/>
    <path d="M295.333 237.634C296.893 236.504 299.323 235.142 300.725 234.603C302.127 234.063 304.107 233.609 305.123 233.598C306.139 233.581 308.308 234.16 309.948 234.886C311.753 235.687 313.62 237.083 314.693 238.434C315.669 239.66 316.856 241.431 317.332 242.367C317.815 243.304 318.729 245.603 319.359 247.476C319.994 249.349 321.039 253.305 321.686 256.273C322.333 259.236 323.428 266.643 324.121 272.733C325.284 282.905 325.381 286.361 325.364 315.303C325.347 341.253 325.199 347.202 324.529 349.052C324.024 350.437 322.946 351.822 321.726 352.65C320.148 353.717 319.273 353.927 317.469 353.672C316.22 353.496 314.727 352.894 314.148 352.344C313.569 351.793 312.701 350.579 312.218 349.642C311.452 348.166 311.367 344.852 311.566 324.668C311.747 306.255 311.645 301.425 311.083 301.539C310.692 301.618 304.692 302.067 297.745 302.543C290.797 303.014 283.453 303.656 281.427 303.962C279.395 304.269 277.686 304.581 277.624 304.661C277.561 304.74 277.118 306.715 276.647 309.059C276.171 311.398 275.382 317.658 274.882 322.965C274.366 328.516 274.031 336.951 274.099 342.831C274.167 348.581 273.968 353.666 273.651 354.467C273.338 355.244 272.345 356.47 271.437 357.18C270.37 358.025 269.042 358.474 267.662 358.457C266.067 358.446 265.034 357.98 263.53 356.595C262.083 355.261 261.373 354.001 260.976 352.054C260.675 350.573 260.426 345.465 260.431 340.703C260.437 335.941 260.698 328.34 261.01 323.817C261.328 319.293 262.123 312.522 262.775 308.776C263.434 305.029 264.552 299.41 265.273 296.289C265.994 293.167 267.486 287.417 268.588 283.518C269.689 279.613 271.255 274.635 272.061 272.45C272.873 270.264 273.815 267.71 274.167 266.774C274.513 265.837 275.972 262.772 277.414 259.963C278.85 257.153 281.302 253.072 282.857 250.892C284.412 248.713 287.216 245.302 289.089 243.304C290.962 241.312 293.772 238.757 295.333 237.634Z" fill="white"/>
    <path d="M346.246 237.741C346.961 237.072 348.062 236.396 348.686 236.249C349.311 236.095 350.332 235.942 350.956 235.908C351.581 235.874 352.92 236.356 353.936 236.975C354.975 237.616 356.161 239.041 356.655 240.239C357.257 241.709 357.427 243.338 357.2 245.489C357.024 247.203 356.638 252.312 356.343 256.841C356.053 261.365 355.299 271.712 354.669 279.828C354.039 287.945 353.272 297.776 352.966 301.681C352.654 305.58 352.398 311.903 352.387 315.729C352.381 320.712 352.574 322.795 353.085 323.079C353.477 323.3 355.838 323.584 358.335 323.72C360.833 323.851 365.305 323.783 373.66 323.17L374.097 308.31C374.341 300.137 374.886 283.103 375.318 270.463C376.033 249.394 376.192 247.26 377.27 244.921C377.911 243.514 379.126 241.987 379.966 241.516C380.8 241.045 382.407 240.721 383.531 240.789C384.66 240.852 386.153 241.3 386.857 241.783C387.561 242.259 388.514 243.548 388.985 244.638C389.558 245.983 389.831 248.509 389.825 252.442C389.82 255.643 389.439 266.178 388.985 275.855C388.525 285.533 388.151 299.898 388.134 322.114L391.114 322.12C392.754 322.12 394.985 322.364 396.08 322.665C397.17 322.965 398.878 324.049 399.877 325.077C400.871 326.098 401.994 327.705 402.369 328.641C402.846 329.816 403.203 338.273 403.527 355.886C403.816 371.574 404.242 382.301 404.634 383.698C404.986 384.946 405.122 386.797 404.934 387.813C404.736 388.88 403.879 390.253 402.891 391.076C401.955 391.854 400.615 392.649 399.911 392.836C399.207 393.023 397.675 392.898 396.506 392.552C395.189 392.166 393.736 391.116 392.692 389.799C391.545 388.358 390.819 386.575 390.427 384.265C390.098 382.347 389.842 371.143 389.837 336.304H384.586C381.697 336.309 375.505 336.718 370.822 337.218C365.72 337.757 360.6 337.978 358.051 337.768C355.707 337.575 352.262 337.013 350.389 336.525C348.516 336.043 346.087 335.095 344.997 334.425C343.901 333.761 342.556 332.694 342.006 332.064C341.449 331.428 340.462 329.89 339.803 328.641C339.02 327.154 338.515 324.901 338.333 322.114C338.18 319.77 338.345 313.77 338.697 308.776C339.043 303.781 339.701 294.711 340.155 288.626C340.609 282.536 341.239 274.238 341.557 270.179C341.869 266.121 342.386 258.714 342.709 253.719C343.027 248.724 343.657 243.361 344.111 241.8C344.565 240.239 345.525 238.411 346.246 237.741Z" fill="white"/>
    <path d="M428.143 242.765C429.778 241.033 431.952 239.399 433.257 238.922C434.739 238.383 436.714 238.19 438.933 238.371C441.459 238.576 442.906 239.053 444.53 240.222C445.733 241.09 447.589 243.202 448.656 244.921C449.723 246.636 451.346 250.467 452.266 253.435C453.185 256.398 454.326 261.507 454.797 264.787C455.274 268.062 455.933 275.214 456.262 280.68C456.846 290.329 456.909 290.658 458.396 292.213C459.588 293.451 459.934 294.364 459.934 296.277C459.934 297.974 459.508 299.342 457.221 302.532L457.885 324.952C458.243 337.28 458.691 348.263 458.867 349.358C459.049 350.448 458.929 352.236 458.606 353.332C458.282 354.421 457.238 356.022 456.279 356.879C455.025 358.008 453.952 358.434 452.414 358.423C451.244 358.411 449.456 357.901 448.44 357.288C447.021 356.425 446.403 355.483 445.75 353.19C445.194 351.214 444.717 345.153 444.337 335.169C444.025 326.893 443.735 316.421 443.695 311.897C443.656 307.374 443.463 302.901 443.258 301.964C442.923 300.387 442.634 300.211 439.211 299.564C437.185 299.183 431.441 298.105 426.446 297.168C421.451 296.237 417.24 295.687 417.081 295.954C416.922 296.215 416.207 298.315 415.486 300.619C414.765 302.918 413.732 305.955 413.193 307.357C412.557 309.008 411.519 310.365 410.247 311.205C409.169 311.914 407.455 312.488 406.439 312.482C405.145 312.471 403.958 311.886 402.465 310.524C400.439 308.673 400.343 308.424 400.439 305.274C400.496 303.452 401.183 300.046 401.972 297.708C402.761 295.363 405.303 288.467 407.619 282.383C409.941 276.292 412.307 270.162 412.881 268.76C413.454 267.353 415.236 263.521 416.843 260.246C418.443 256.966 421.003 252.368 422.53 250.03C424.051 247.686 426.577 244.416 428.143 242.765Z" fill="white"/>
</svg>
